<svg width="58" height="58" viewBox="0 0 58 58" fill="none" xmlns="http://www.w3.org/2000/svg">
<path d="M15.4062 50.75H17.2188V48.8088C18.7775 48.4037 19.9375 46.9972 19.9375 45.3125C19.9375 44.2241 19.4463 43.2589 18.6851 42.5938C19.4463 41.9286 19.9375 40.9634 19.9375 39.875C19.9375 38.1903 18.7775 36.7838 17.2188 36.3787V34.4375H15.4062V36.25H14.5V34.4375H12.6875V36.25H10.875V38.0625H11.7812V47.125H10.875V48.9375H12.6875V50.75H14.5V48.9375H15.4062V50.75ZM16.3125 38.0625C17.3121 38.0625 18.125 38.8754 18.125 39.875C18.125 40.8746 17.3121 41.6875 16.3125 41.6875H13.5938V38.0625H16.3125ZM13.5938 43.5H16.3125C17.3121 43.5 18.125 44.3129 18.125 45.3125C18.125 46.3121 17.3121 47.125 16.3125 47.125H13.5938V43.5Z" fill="white"/>
<path d="M24.4688 42.5938C24.4688 47.5908 20.4033 51.6562 15.4062 51.6562V53.4688C21.4029 53.4688 26.2812 48.5904 26.2812 42.5938H24.4688Z" fill="white"/>
<path d="M15.4062 31.7188C9.40959 31.7188 4.53125 36.5971 4.53125 42.5938H6.34375C6.34375 37.5967 10.4092 33.5313 15.4062 33.5313V31.7188Z" fill="white"/>
<path d="M51.6562 15.4062C51.6562 20.4033 47.5908 24.4688 42.5938 24.4688V26.2812C48.5904 26.2812 53.4688 21.4029 53.4688 15.4062H51.6562Z" fill="white"/>
<path d="M42.5938 4.53125C36.5971 4.53125 31.7188 9.40959 31.7188 15.4062H33.5313C33.5313 10.4092 37.5967 6.34375 42.5938 6.34375V4.53125Z" fill="white"/>
<path d="M53.4524 24.9837C55.7108 22.4263 57.0938 19.0786 57.0938 15.4065C57.0938 7.41154 50.5887 0.906477 42.5938 0.906477C38.9216 0.906477 35.5739 2.28941 33.0165 4.54779L29.6407 1.17201C29.2864 0.817664 28.7136 0.817664 28.3593 1.17201L16.3125 13.2188V9.06273H14.5V15.4065C14.5 15.9076 14.906 16.3127 15.4062 16.3127H21.75V14.5002H17.5939L29 3.09416L31.7351 5.82923C29.4767 8.38666 28.0938 11.7344 28.0938 15.4065C28.0938 23.4014 34.5988 29.9065 42.5938 29.9065C46.2659 29.9065 49.6136 28.5235 52.171 26.2652L54.9061 29.0002L43.7655 40.1408L45.047 41.4222L56.8282 29.6409C57.1826 29.2866 57.1826 28.7139 56.8282 28.3595L53.4524 24.9837ZM42.5938 28.094C35.5975 28.094 29.9062 22.4027 29.9062 15.4065C29.9062 8.41023 35.5975 2.71898 42.5938 2.71898C49.59 2.71898 55.2812 8.41023 55.2812 15.4065C55.2812 22.4027 49.59 28.094 42.5938 28.094Z" fill="white"/>
<path d="M42.594 41.6876H36.2502V43.5001H40.4063L29.0002 54.9062L26.2652 52.1711C28.5235 49.6137 29.9065 46.266 29.9065 42.5938C29.9065 34.5989 23.4014 28.0938 15.4065 28.0938C11.7344 28.0938 8.38666 29.4768 5.82923 31.7352L3.09416 29.0001L14.2347 17.8596L12.9533 16.5781L1.17201 28.3594C0.817664 28.7137 0.817664 29.2865 1.17201 29.6408L4.54779 33.0166C2.28941 35.574 0.906477 38.9217 0.906477 42.5938C0.906477 50.5888 7.41154 57.0938 15.4065 57.0938C19.0786 57.0938 22.4263 55.7109 24.9837 53.4525L28.3595 56.8283C28.5362 57.005 28.7682 57.0938 29.0002 57.0938C29.2322 57.0938 29.4642 57.005 29.6409 56.8283L41.6877 44.7815V48.9376H43.5002V42.5938C43.5002 42.0927 43.0942 41.6876 42.594 41.6876ZM2.71898 42.5938C2.71898 35.5976 8.41023 29.9063 15.4065 29.9063C22.4027 29.9063 28.094 35.5976 28.094 42.5938C28.094 49.5901 22.4027 55.2813 15.4065 55.2813C8.41023 55.2813 2.71898 49.5901 2.71898 42.5938Z" fill="white"/>
<path d="M43.5 21.6213C45.0588 21.2162 46.2188 19.8097 46.2188 18.125C46.2188 16.1258 44.5929 14.5 42.5938 14.5C41.5942 14.5 40.7812 13.6871 40.7812 12.6875C40.7812 11.6879 41.5942 10.875 42.5938 10.875C43.5933 10.875 44.4062 11.6879 44.4062 12.6875H46.2188C46.2188 11.0028 45.0588 9.59628 43.5 9.19119V7.25H41.6875V9.19119C40.1287 9.59628 38.9688 11.0028 38.9688 12.6875C38.9688 14.6867 40.5946 16.3125 42.5938 16.3125C43.5933 16.3125 44.4062 17.1254 44.4062 18.125C44.4062 19.1246 43.5933 19.9375 42.5938 19.9375C41.5942 19.9375 40.7812 19.1246 40.7812 18.125H38.9688C38.9688 19.8097 40.1287 21.2162 41.6875 21.6213V23.5625H43.5V21.6213Z" fill="white"/>
</svg>
