<svg width="59" height="66" viewBox="0 0 59 66" fill="none" xmlns="http://www.w3.org/2000/svg">
<g filter="url(#filter0_d)">
<path d="M50.75 26.2812V5.4375C50.7486 4.23618 50.2707 3.08447 49.4212 2.23501C48.5718 1.38555 47.4201 0.907689 46.2188 0.90625H11.7812C10.5799 0.907689 9.42822 1.38555 8.57876 2.23501C7.7293 3.08447 7.25144 4.23618 7.25 5.4375V52.5625C7.25144 53.7638 7.7293 54.9155 8.57876 55.765C9.42822 56.6144 10.5799 57.0923 11.7812 57.0938H32.625V55.2812H11.7812C11.0602 55.2812 10.3687 54.9948 9.8588 54.4849C9.34894 53.9751 9.0625 53.2836 9.0625 52.5625V5.4375C9.0625 4.71644 9.34894 4.02492 9.8588 3.51505C10.3687 3.00519 11.0602 2.71875 11.7812 2.71875H46.2188C46.9398 2.71875 47.6313 3.00519 48.1412 3.51505C48.6511 4.02492 48.9375 4.71644 48.9375 5.4375V26.2812H38.0625C37.1011 26.2812 36.1791 26.6632 35.4992 27.343C34.8194 28.0228 34.4375 28.9448 34.4375 29.9062V46.2188H12.6875V6.34375H45.3125V24.4688H47.125V5.4375C47.125 5.19715 47.0295 4.96664 46.8596 4.79668C46.6896 4.62673 46.4591 4.53125 46.2188 4.53125H11.7812C11.5409 4.53125 11.3104 4.62673 11.1404 4.79668C10.9705 4.96664 10.875 5.19715 10.875 5.4375V47.125C10.875 47.3654 10.9705 47.5959 11.1404 47.7658C11.3104 47.9358 11.5409 48.0312 11.7812 48.0312H34.4375V53.4688C34.4375 54.4302 34.8194 55.3522 35.4992 56.032C36.1791 56.7118 37.1011 57.0938 38.0625 57.0938H50.75C51.7114 57.0938 52.6334 56.7118 53.3133 56.032C53.9931 55.3522 54.375 54.4302 54.375 53.4688V29.9062C54.375 28.9448 53.9931 28.0228 53.3133 27.343C52.6334 26.6632 51.7114 26.2812 50.75 26.2812ZM38.0625 28.0938H50.75C51.2307 28.0938 51.6917 28.2847 52.0316 28.6246C52.3715 28.9645 52.5625 29.4255 52.5625 29.9062H36.25C36.25 29.4255 36.441 28.9645 36.7809 28.6246C37.1208 28.2847 37.5818 28.0938 38.0625 28.0938ZM52.5625 31.7188V49.8438H36.25V31.7188H52.5625ZM50.75 55.2812H38.0625C37.5818 55.2812 37.1208 55.0903 36.7809 54.7504C36.441 54.4105 36.25 53.9495 36.25 53.4688V51.6562H52.5625V53.4688C52.5625 53.9495 52.3715 54.4105 52.0316 54.7504C51.6917 55.0903 51.2307 55.2812 50.75 55.2812Z" fill="white"/>
<path d="M43.5 52.5625H45.3125V54.375H43.5V52.5625Z" fill="white"/>
<path d="M26.2812 51.6563C26.2812 52.194 26.4407 52.7196 26.7394 53.1667C27.0382 53.6138 27.4628 53.9623 27.9596 54.1681C28.4564 54.3738 29.003 54.4277 29.5304 54.3228C30.0578 54.2179 30.5422 53.9589 30.9225 53.5787C31.3027 53.1985 31.5616 52.714 31.6665 52.1867C31.7714 51.6593 31.7176 51.1126 31.5118 50.6158C31.306 50.119 30.9576 49.6944 30.5105 49.3957C30.0634 49.097 29.5377 48.9375 29 48.9375C28.2789 48.9375 27.5874 49.2239 27.0776 49.7338C26.5677 50.2437 26.2813 50.9352 26.2812 51.6563ZM29.9063 51.6563C29.9063 51.8355 29.8531 52.0107 29.7535 52.1597C29.6539 52.3088 29.5124 52.4249 29.3468 52.4935C29.1812 52.5621 28.999 52.5801 28.8232 52.5451C28.6474 52.5101 28.4859 52.4238 28.3592 52.2971C28.2324 52.1703 28.1461 52.0089 28.1112 51.8331C28.0762 51.6573 28.0941 51.475 28.1627 51.3094C28.2313 51.1439 28.3475 51.0023 28.4965 50.9027C28.6455 50.8032 28.8208 50.75 29 50.75C29.2404 50.75 29.4709 50.8455 29.6408 51.0154C29.8108 51.1854 29.9063 51.4159 29.9063 51.6563Z" fill="white"/>
<path d="M39.2246 41.9531L42.8497 38.3281L44.1313 39.6097L40.5062 43.2348L39.2246 41.9531Z" fill="white"/>
<path d="M44.6621 41.9531L48.2872 38.3281L49.5688 39.6097L45.9437 43.2348L44.6621 41.9531Z" fill="white"/>
<path d="M19.0312 8.15625H15.4062C15.1659 8.15625 14.9354 8.25173 14.7654 8.42168C14.5955 8.59164 14.5 8.82215 14.5 9.0625V12.6875H16.3125V9.96875H19.0312V8.15625Z" fill="white"/>
<path d="M14.5 39.875V43.5C14.5 43.7404 14.5955 43.9709 14.7654 44.1408C14.9354 44.3108 15.1659 44.4062 15.4062 44.4062H19.0312V42.5938H16.3125V39.875H14.5Z" fill="white"/>
<path d="M43.5 12.6875V9.0625C43.5 8.82215 43.4045 8.59164 43.2346 8.42168C43.0646 8.25173 42.8341 8.15625 42.5938 8.15625H38.9688V9.96875H41.6875V12.6875H43.5Z" fill="white"/>
<path d="M35.3438 8.15625H37.1562V9.96875H35.3438V8.15625Z" fill="white"/>
</g>
<defs>
<filter id="filter0_d" x="-4" y="0" width="66" height="66" filterUnits="userSpaceOnUse" color-interpolation-filters="sRGB">
<feFlood flood-opacity="0" result="BackgroundImageFix"/>
<feColorMatrix in="SourceAlpha" type="matrix" values="0 0 0 0 0 0 0 0 0 0 0 0 0 0 0 0 0 0 127 0" result="hardAlpha"/>
<feOffset dy="4"/>
<feGaussianBlur stdDeviation="2"/>
<feComposite in2="hardAlpha" operator="out"/>
<feColorMatrix type="matrix" values="0 0 0 0 0 0 0 0 0 0 0 0 0 0 0 0 0 0 0.25 0"/>
<feBlend mode="normal" in2="BackgroundImageFix" result="effect1_dropShadow"/>
<feBlend mode="normal" in="SourceGraphic" in2="effect1_dropShadow" result="shape"/>
</filter>
</defs>
</svg>
