<svg width="58" height="42" viewBox="0 0 58 42" fill="none" xmlns="http://www.w3.org/2000/svg">
<path d="M54.375 21.0001H52.1502C53.0243 18.5887 53.4705 16.0432 53.4688 13.4782C53.4684 10.7566 52.6344 8.10047 51.0791 5.86707C49.5238 3.63367 47.3218 1.93021 44.7693 0.985871C42.2168 0.041531 39.4363 -0.098377 36.802 0.584971C34.1676 1.26832 31.8057 2.74213 30.034 4.80813L29 6.01344L27.966 4.80813C26.1943 2.74213 23.8324 1.26832 21.198 0.584971C18.5637 -0.098377 15.7832 0.041531 13.2307 0.985871C10.6782 1.93021 8.47615 3.63367 6.92086 5.86707C5.36557 8.10047 4.53163 10.7566 4.53125 13.4782C4.53431 16.7025 5.23842 19.8875 6.59478 22.8126H3.625C2.90394 22.8126 2.21242 23.099 1.70255 23.6089C1.19269 24.1188 0.90625 24.8103 0.90625 25.5313C0.90625 26.2524 1.19269 26.9439 1.70255 27.4538C2.21242 27.9637 2.90394 28.2501 3.625 28.2501H10.179C11.3406 29.5551 12.6522 30.7183 14.0868 31.7156L28.4843 41.6843C28.6359 41.7892 28.8157 41.8454 29 41.8454C29.1843 41.8454 29.3641 41.7892 29.5157 41.6843L43.9132 31.7156C45.9872 30.2755 47.7988 28.4903 49.2692 26.4376H54.375C55.0961 26.4376 55.7876 26.1512 56.2974 25.6413C56.8073 25.1314 57.0938 24.4399 57.0938 23.7188C57.0938 22.9978 56.8073 22.3063 56.2974 21.7964C55.7876 21.2865 55.0961 21.0001 54.375 21.0001ZM6.34375 13.4782C6.34388 11.1267 7.0643 8.83163 8.40807 6.90188C9.75184 4.97212 11.6545 3.50028 13.8599 2.68441C16.0654 1.86855 18.4678 1.74781 20.744 2.33845C23.0201 2.92909 25.0607 4.20276 26.5912 5.98807L28.3131 7.99541C28.4006 8.0906 28.5069 8.1666 28.6253 8.21858C28.7437 8.27056 28.8716 8.2974 29.0009 8.2974C29.1302 8.2974 29.2581 8.27056 29.3765 8.21858C29.4949 8.1666 29.6012 8.0906 29.6887 7.99541L31.4106 5.98807C32.9413 4.20345 34.9817 2.9304 37.2575 2.34017C39.5334 1.74994 41.9354 1.87086 44.1404 2.68664C46.3454 3.50243 48.2477 4.97395 49.5914 6.90326C50.9351 8.83257 51.6557 11.1271 51.6562 13.4782C51.6558 16.0549 51.1637 18.6079 50.2063 21.0001H43.0188L38.7594 15.8888C38.6699 15.7792 38.5556 15.6924 38.4259 15.6356C38.2962 15.5789 38.1549 15.5539 38.0136 15.5626C37.8728 15.5702 37.7359 15.6106 37.6135 15.6804C37.4911 15.7503 37.3866 15.8477 37.3085 15.965L32.5498 23.1008L25.1702 14.0818C25.081 13.9743 24.9684 13.8885 24.841 13.831C24.7137 13.7735 24.5749 13.7459 24.4352 13.7501C24.2952 13.7554 24.1584 13.7931 24.0354 13.8603C23.9124 13.9274 23.8067 14.0222 23.7265 14.1371L17.6528 22.8126H8.62025C7.12943 19.9266 6.34897 16.7265 6.34375 13.4782ZM42.881 30.2248L29 39.8356L15.119 30.2293C14.2642 29.6324 13.4564 28.9707 12.7029 28.2501H19.9375C20.0817 28.25 20.2237 28.2154 20.3518 28.1494C20.48 28.0834 20.5905 27.9877 20.6743 27.8704L24.5177 22.4909L31.9236 31.5425C32.0085 31.6464 32.1156 31.7302 32.2369 31.7877C32.3582 31.8452 32.4907 31.8751 32.625 31.8751H32.6694C32.8109 31.8682 32.9488 31.8281 33.072 31.7583C33.1953 31.6884 33.3004 31.5906 33.379 31.4727L38.203 24.2363L40.1405 26.173C40.3106 26.3426 40.541 26.4378 40.7812 26.4376H46.999C45.8077 27.884 44.4219 29.1585 42.881 30.2248ZM54.375 24.6251H41.1564L38.7032 22.1719C38.6084 22.0771 38.4938 22.0045 38.3676 21.9593C38.2413 21.9142 38.1067 21.8976 37.9733 21.9108C37.8399 21.9239 37.711 21.9666 37.5961 22.0355C37.4811 22.1045 37.3829 22.1981 37.3085 22.3096L32.5507 29.4463L25.1702 20.4264C25.0852 20.3225 24.9782 20.2388 24.8569 20.1812C24.7356 20.1237 24.603 20.0939 24.4688 20.0938H24.4388C24.2998 20.0986 24.1637 20.1354 24.0411 20.2012C23.9185 20.2671 23.8127 20.3603 23.732 20.4736L19.4708 26.4376H3.625C3.38465 26.4376 3.15414 26.3421 2.98418 26.1722C2.81423 26.0022 2.71875 25.7717 2.71875 25.5313C2.71875 25.291 2.81423 25.0605 2.98418 24.8905C3.15414 24.7206 3.38465 24.6251 3.625 24.6251H18.125C18.2707 24.625 18.4143 24.5898 18.5435 24.5224C18.6727 24.4551 18.7837 24.3575 18.8672 24.2381L24.5249 16.1562L31.9227 25.1978C32.0139 25.3058 32.1285 25.3916 32.2576 25.4491C32.3868 25.5065 32.5272 25.534 32.6685 25.5295C32.81 25.5226 32.9479 25.4826 33.0711 25.4127C33.1944 25.3428 33.2995 25.245 33.3781 25.1272L38.1432 17.9814L41.8968 22.4863C41.982 22.5885 42.0885 22.6707 42.209 22.7271C42.3294 22.7835 42.4608 22.8127 42.5938 22.8126H54.375C54.6154 22.8126 54.8459 22.9081 55.0158 23.078C55.1858 23.248 55.2812 23.4785 55.2812 23.7188C55.2812 23.9592 55.1858 24.1897 55.0158 24.3597C54.8459 24.5296 54.6154 24.6251 54.375 24.6251Z" fill="white"/>
</svg>
